<?xml version="1.0" encoding="UTF-8" standalone="no"?>
<!-- Uploaded to: SVG Repo, www.svgrepo.com, Generator: SVG Repo Mixer Tools -->
<svg width="800px" height="800px" viewBox="0 0 64 64" version="1.1" xmlns="http://www.w3.org/2000/svg" xmlns:xlink="http://www.w3.org/1999/xlink">
    
    <title>cle-soap-bar</title>
    <desc>Created with Sketch.</desc>
    <defs>

</defs>
    <g id="64px-Glyph" stroke="none" stroke-width="1" fill="none" fill-rule="evenodd">
        <g id="cle-soap-bar" fill="#000000">
            <path d="M50.7081,37.876 L45.7601,43.65 C45.5611,43.882 45.2811,44 45.0001,44 C44.7691,44 44.5381,43.921 44.3501,43.759 C43.9301,43.399 43.8811,42.769 44.2411,42.35 L49.1891,36.575 C49.5511,36.154 50.1821,36.107 50.6001,36.467 C51.0191,36.826 51.0681,37.457 50.7081,37.876 M37.0001,48 L13.0001,48 C12.4471,48 12.0001,47.553 12.0001,47 C12.0001,46.447 12.4471,46 13.0001,46 L37.0001,46 C37.5531,46 38.0001,46.447 38.0001,47 C38.0001,47.553 37.5531,48 37.0001,48 M54.0001,32 L21.4851,32 C19.6151,32 17.8571,32.728 16.5351,34.051 L8.0511,42.535 C6.7281,43.857 6.0001,45.615 6.0001,47.485 L6.0001,56 C6.0001,58.206 7.7941,60 10.0001,60 L42.2401,60 C44.2861,60 46.2241,59.108 47.5551,57.555 L56.3151,47.336 C57.4011,46.067 58.0001,44.449 58.0001,42.78 L58.0001,36 C58.0001,33.794 56.2061,32 54.0001,32" id="Fill-242">

</path>
            <path d="M34.0001,30 C31.7941,30 30.0001,28.206 30.0001,26 C30.0001,23.794 31.7941,22 34.0001,22 C36.2061,22 38.0001,23.794 38.0001,26 C38.0001,28.206 36.2061,30 34.0001,30" id="Fill-243">

</path>
            <path d="M44.0001,16 C41.7941,16 40.0001,14.206 40.0001,12 C40.0001,11.447 40.4471,11 41.0001,11 C41.5531,11 42.0001,11.447 42.0001,12 C42.0001,13.103 42.8971,14 44.0001,14 C44.5531,14 45.0001,14.447 45.0001,15 C45.0001,15.553 44.5531,16 44.0001,16 M44.0001,4 C39.5891,4 36.0001,7.589 36.0001,12 C36.0001,16.411 39.5891,20 44.0001,20 C48.4111,20 52.0001,16.411 52.0001,12 C52.0001,7.589 48.4111,4 44.0001,4" id="Fill-244">

</path>
            <path d="M21.0001,22 C19.3461,22 18.0001,20.654 18.0001,19 C18.0001,18.447 18.4471,18 19.0001,18 C19.5531,18 20.0001,18.447 20.0001,19 C20.0001,19.552 20.4481,20 21.0001,20 C21.5531,20 22.0001,20.447 22.0001,21 C22.0001,21.553 21.5531,22 21.0001,22 M21.0001,12 C17.1411,12 14.0001,15.141 14.0001,19 C14.0001,22.859 17.1411,26 21.0001,26 C24.8591,26 28.0001,22.859 28.0001,19 C28.0001,15.141 24.8591,12 21.0001,12" id="Fill-245">

</path>
        </g>
    </g>
</svg>